<svg width="163" height="40" viewBox="0 0 163 40" fill="none" xmlns="http://www.w3.org/2000/svg">
<path d="M7.4457 13.0799H7.64414L7.69375 13.2797C7.71856 13.3297 7.71856 13.4046 7.74336 13.4546H7.99141L8.06582 13.6045C8.09063 13.7044 8.14024 13.7793 8.16504 13.8792C8.16504 13.9042 8.18985 13.9292 8.18985 13.9542H8.4875L8.56192 14.104C8.58672 14.154 8.61153 14.204 8.61153 14.2539C8.61153 14.2789 8.63633 14.3289 8.63633 14.3538L8.80996 14.7035H9.35567L9.50449 14.9533H9.67813L9.90137 15.328H10.0502L10.1246 15.403C10.1742 15.4529 10.199 15.5029 10.2486 15.5528C10.2982 15.6028 10.3231 15.6527 10.3479 15.7027L10.4719 15.9275H10.9928L11.8609 16.8018H11.6873L11.8361 16.9267H11.1664L11.6625 17.3014L12.3074 17.6761H11.7617L11.9354 17.801H11.7617L12.8035 18.1507H13.0764C13.3492 18.1756 13.6221 18.2006 13.8949 18.2256C14.4406 18.2506 15.0359 18.2506 15.6065 18.2256C15.6561 18.2256 15.7057 18.2256 15.7553 18.2256V18.1756C15.8793 18.1507 16.0033 18.1507 16.1522 18.1257C16.301 18.1007 16.425 18.0757 16.5738 18.0508H16.5986H17.0451C17.5164 17.9508 17.9629 17.8259 18.3598 17.701L18.4094 17.6761H19.0047C19.2776 17.5761 19.5504 17.4762 19.8233 17.3264L19.8729 17.3014H20.493L20.7658 17.1765H21.2123C21.3115 17.1265 21.386 17.0766 21.4852 17.0266C21.5844 16.9766 21.6836 16.9267 21.758 16.8517L21.8324 16.8018H21.9813C22.1549 16.7019 22.2789 16.577 22.4029 16.4771L22.4774 16.4271H22.651L23.2463 15.8276H22.1797L22.3533 15.4779C22.3781 15.4279 22.4029 15.378 22.4526 15.328L22.5766 15.2031H22.775L22.9983 14.8284C23.0479 14.7535 23.0727 14.6786 23.1223 14.6036C23.1471 14.5287 23.1967 14.4537 23.2215 14.3788L23.2959 14.2289H23.3455L23.4447 14.0041H23.1967L23.2711 13.7044C23.2711 13.6794 23.2711 13.6794 23.2959 13.6544H21.51L21.5844 13.2797H21.4852L21.634 12.93C21.634 12.8301 21.6588 12.7552 21.6836 12.6802L21.758 12.4804H23.916V12.2306H24.0897V12.1057C24.0897 12.0308 24.0897 11.9558 24.1145 11.8809C24.1145 11.8309 24.1145 11.781 24.1145 11.706V11.1065H25.4787V10.6319H23.2463V9.88256H23.6432V9.28306H23.8664V8.48372H23.8416L23.7672 8.35883C23.7672 8.35883 23.7672 8.33385 23.7176 8.30887L23.668 8.25891H23.3207L23.2463 8.20895C23.2463 8.20895 23.2215 8.18397 23.0975 8.18397H16.7971L16.6979 8.23393C16.6979 8.23393 16.6731 8.25891 16.6234 8.30887L16.549 8.38381H16.5242L16.4994 8.40878C16.4746 8.43376 16.4498 8.5087 16.4498 8.58364V8.95833H16.5738V9.58281H16.4002V9.68272H17.0451V10.1823H18.9303V11.1815H17.9877V11.3064L18.1613 11.6811H17.7645H16.8715C16.9211 11.706 16.9955 11.706 17.0451 11.706H18.4342V11.9059H18.4838V12.1557C18.4838 12.2306 18.4838 12.3055 18.459 12.3805C18.459 12.4554 18.4342 12.5054 18.4094 12.5803L18.3598 12.7801H18.1365L18.0621 13.0299H15.8297L15.7553 13.1299H17.6404L16.9955 13.5795C16.7971 13.7044 16.5738 13.8043 16.301 13.8792C16.0529 13.9292 15.7553 13.9791 15.4824 13.9791C14.9367 13.9791 14.4902 13.8542 14.1678 13.6294H13.9445L13.8701 13.5795C13.7461 13.4796 13.6221 13.3796 13.5229 13.2547H12.1834L12.109 13.1798C11.985 13.0549 11.9106 12.93 11.8857 12.8051V12.4804H13.7957C13.7957 12.4304 13.7709 12.4055 13.7709 12.3805C13.7461 12.3305 13.7461 12.2556 13.7213 12.1806L13.6469 11.8809H14.6639C14.6639 11.8559 14.6639 11.806 14.6639 11.756V11.6311H12.8283V10.6319H14.8375C14.8375 10.557 14.8375 10.4821 14.8375 10.4071H13.1508V9.65774H13.374V9.28306H13.5725V8.43376H13.5973V8.23393H13.2748V7.60945H13.6965V7.50953H13.4484L13.4981 7.20978C13.5229 7.13485 13.5229 7.03493 13.5477 6.95999C13.5725 6.86008 13.5725 6.78514 13.5973 6.7102L13.6469 6.51037H13.8453C13.8701 6.46041 13.8701 6.43543 13.8949 6.41045H13.1508L13.4732 6.01078C13.6469 5.78597 13.8701 5.6361 14.1182 5.56116H14.1926H14.8623C15.1352 5.46124 15.4328 5.41128 15.7801 5.41128C16.1274 5.41128 16.425 5.46124 16.6483 5.56116H16.6979L16.7475 5.58614C16.9459 5.66107 17.1443 5.78597 17.318 5.93585H17.6901L17.7645 5.9858C17.8637 6.06074 17.9381 6.13568 18.0125 6.2356C18.0621 6.31053 18.1117 6.36049 18.1365 6.41045L18.2854 6.63526C18.335 6.63526 18.3598 6.63526 18.4094 6.63526H23.6432L23.792 6.56033C23.8168 6.56033 23.8416 6.53535 23.8664 6.46041L23.916 6.33551V6.18564C23.916 6.13568 23.916 6.1107 23.916 6.06074H23.8912L23.8416 5.86091C23.8168 5.76099 23.8168 5.68605 23.792 5.58614C23.792 5.53618 23.7672 5.46124 23.7424 5.41128L23.6184 5.06157H23.6928L23.6432 4.88672C23.6432 4.83676 23.6184 4.81178 23.5936 4.76182C23.5936 4.73684 23.5688 4.73684 23.5688 4.71187H23.4447L23.3951 4.51203C23.3951 4.48705 23.3703 4.43709 23.3455 4.41212C23.2959 4.36216 23.2711 4.28722 23.2215 4.21228L23.1471 4.11236C23.0975 4.03743 23.0479 3.98747 22.9983 3.91253C22.9735 3.86257 22.9238 3.81261 22.8742 3.76266L22.4526 3.33801H22.4774C22.4278 3.28805 22.4029 3.26307 22.3533 3.23809C22.3037 3.18813 22.2293 3.1132 22.1549 3.06324L21.6836 2.68855C21.634 2.66357 21.5844 2.63859 21.5348 2.61361L20.5922 2.13901H20.6914C20.6914 2.13901 20.6914 2.13901 20.6666 2.13901C20.5674 2.08905 20.4682 2.03909 20.369 2.01411C20.2697 1.96415 20.1953 1.93918 20.0961 1.9142L19.0295 1.56449C19.0295 1.56449 19.0295 1.56449 19.0047 1.56449C18.5086 1.43959 17.9877 1.33968 17.4668 1.28972C16.425 1.16482 15.2096 1.16482 14.1182 1.28972C13.7709 1.33968 13.4236 1.38963 13.0764 1.46457L12.6299 1.58947C12.2578 1.68938 11.9106 1.81428 11.5881 1.93918L11.5385 1.96416H11.4889C11.4145 1.98913 11.3648 2.01411 11.2904 2.03909C11.216 2.06407 11.1416 2.11403 11.0672 2.16399L11.0424 2.18897C10.9184 2.23893 10.7943 2.31386 10.6703 2.3888C10.5463 2.48872 10.3975 2.56365 10.2734 2.63859L10.2238 2.68855H10.199C10.1246 2.73851 10.0502 2.78847 9.97578 2.86341C9.90137 2.93834 9.82696 2.9883 9.77735 3.03826H9.85176L9.62852 3.28805H10.8191L10.6455 3.63776C10.6207 3.68772 10.5711 3.76266 10.4967 3.81261L10.4223 3.88755H9.18203L8.88438 4.38714H8.73555L8.61153 4.61195C8.58672 4.66191 8.56192 4.73684 8.53711 4.7868C8.53711 4.81178 8.51231 4.83676 8.4875 4.86174V4.9117C8.4875 4.93668 8.4875 4.93668 8.4627 4.96166H8.66113L8.41309 5.58614H8.14024V5.61112C8.11543 5.71103 8.09063 5.81095 8.06582 5.91087V5.93585H8.16504L7.99141 6.81012H7.86738C7.86738 6.86008 7.84258 6.88505 7.84258 6.91003L7.76816 7.03493H8.04102V7.65941H7.9418V8.15899H7.89219V8.40878H7.81778V8.48372H7.74336V8.95833H7.86738V9.08322H8.21465V9.8326H7.56973V9.93252H9.35567V10.6819H9.0332C9.0332 10.7568 9.03321 10.8068 9.05801 10.8817L9.10762 11.1565H9.75254V12.0308H8.85957V12.4055H8.18985C8.21465 12.4804 8.23945 12.5553 8.23945 12.6303V12.98H7.4209C7.4209 13.0299 7.4457 13.0549 7.4457 13.0799Z" fill="white"/>
<path d="M29.968 17.9259C29.968 17.9259 30.0176 17.9509 30.092 17.9509H34.0856L34.2344 17.8759C34.3336 17.826 34.3832 17.776 34.4328 17.7261C34.4824 17.6511 34.532 17.5762 34.5568 17.5262L34.6313 17.3764H34.7305L34.7553 17.3014L34.9785 16.652H35.1273L35.2266 16.4022H35.4746L35.6482 15.9026H35.9211L35.9707 15.7277H41.527L41.6014 15.9026H41.899L42.2463 16.9018H41.7006L41.9486 17.6261H41.527V17.751C41.5518 17.801 41.6014 17.826 41.6758 17.851C41.7502 17.8759 41.8246 17.9009 41.899 17.9009C41.9238 17.9009 41.9983 17.9259 42.0975 17.9259H46.5623C46.5871 17.9259 46.6119 17.9259 46.6367 17.9259L46.7112 17.8759C46.7608 17.851 46.8104 17.776 46.8104 17.6511V17.3514H46.86L46.7608 17.1266H46.7112L46.4879 16.3772H47.1824L47.0088 15.9026H46.0662L45.967 15.6528H45.9174L45.719 15.1532H45.4213L45.074 14.154H45.1485L44.9996 13.7794H45.074L44.7268 12.9301H44.8756L44.702 12.4305H44.9996L44.9748 12.4055L44.8012 11.9559H44.6028L44.3051 10.9567H44.3795L44.1315 10.2323H44.4291L44.2059 9.63281H44.0322L43.8586 9.13323H43.0897L42.8416 8.50875H43.6106L43.5858 8.40883H42.6928L42.5688 7.78435H43.1145L42.9408 7.28477H43.4369L43.4121 7.18485H39.7906L39.493 6.43548H40.1627L39.8899 5.58618H40.8324L40.6588 5.0866H41.9238L41.6758 4.4871H41.775L41.5022 3.63781H41.9238L41.7502 3.1632H41.0805L40.8324 2.53872H43.0401L43.0152 2.43881H42.1967L41.9983 1.91424V1.86428C41.9983 1.86428 41.9983 1.8393 41.9734 1.81433L41.7998 1.46462H41.8246C41.7998 1.43964 41.775 1.43964 41.7254 1.41466C41.6262 1.3647 41.4774 1.33972 41.3037 1.33972H36.1443C35.9707 1.33972 35.8219 1.3647 35.7227 1.41466C35.6979 1.43964 35.6731 1.43964 35.6482 1.46462L35.3506 1.9642H35.9955L35.9459 2.0891H35.9955L35.6482 3.08826H34.0111L33.9615 3.18818H34.0359L33.7383 4.03747H34.0359L33.7879 4.76187H34.0359L33.7383 5.63614H31.3074L31.1338 6.13572H30.4889L30.3648 6.48543H30.6625L30.5881 6.73522H32.25L32.1756 6.98502H32.4484L32.3244 7.3597H32.8701L32.5229 8.35887H32.4236L32.3492 8.58368H32.374L32.3244 8.70858H32.374L32.0268 9.70775H31.9771L31.7787 10.3072H32.3492L32.002 11.3064H31.4811L31.3818 11.5312H32.2996L32.1756 11.9059H32.2748L32.0268 12.5304H30.8113L30.6625 13.03H30.34L30.1664 13.5296H30.1912L30.0176 14.0042H30.6129L30.3896 14.7535H30.1168L29.8687 15.353H29.7199L29.6703 15.453H30.5881L30.2408 16.4521H29.968L29.7943 16.9517H29.5215L29.4223 17.2015H29.2734L29.199 17.4013L29.1494 17.6761V17.9259H29.8191H29.968ZM36.2932 10.7819L36.5164 10.0325H36.6404L36.9133 9.18319H37.1365L37.1613 9.08327H36.5908L36.8141 8.33389H37.335L37.4342 7.95921H37.6326L37.6574 7.85929H37.1117L37.2357 7.4846H36.9629L37.1861 6.73522H38.6496L38.8729 7.4846H38.6992L38.8233 7.85929H38.3024L38.3272 7.95921H38.6L38.724 8.33389L38.7984 8.50875L38.9721 9.08327L38.9969 9.18319H39.2697L39.493 10.0325H39.8402L40.0635 10.7819H39.865L39.9891 11.3814H39.9147L39.9395 11.4563H36.5164L36.5412 11.3814H36.2436L36.4916 10.7819H36.2932Z" fill="white"/>
<path d="M95.18 17.1265H94.6839V16.3771H94.7087V16.1273H95.2048V16.0274H95.1056V15.0532H94.8079V14.054H96.5939L96.5691 14.0041C96.5691 13.9791 96.5443 13.9292 96.4698 13.8292L96.3706 13.6794H89.2517V13.4795H86.5728V13.2297H85.9526V12.3555H86.4239V11.9808H86.9448V11.731H87.3417V11.6311H94.3118C94.3614 11.6311 94.4111 11.6311 94.4359 11.6061L94.6095 11.4312C94.6095 11.4312 94.6343 11.4063 94.6343 11.3813H94.4359V10.8817H94.0638V10.1323H94.0886V9.40792H94.4855V9.03323H94.5847V8.65854H94.6095V8.55863H94.2374V7.78427L94.2126 7.75929L94.1134 7.65938C94.0638 7.6344 94.0142 7.6344 93.9646 7.6344H86.9944V6.86004H86.8208V5.86088H86.8952V5.58611H94.4111C94.5847 5.58611 94.6591 5.51117 94.7087 5.46121L94.7831 5.36129H95.1304V5.13648H94.932V4.512H95.9489V4.16229H94.6839V3.53781H94.9568V3.23806H94.9816V2.86338H95.056L95.0312 2.61358V2.26387H94.9816V1.88919H94.7583L94.7335 1.66437C94.7087 1.48952 94.6343 1.36462 94.3614 1.36462H81.9591C81.9095 1.36462 81.8599 1.36462 81.8351 1.36462H81.9839L81.8103 1.71433H81.8599V2.31383L81.8847 2.56362V3.313H81.8103V3.66271H83.869V3.9125H84.5884V4.66188H82.8024V5.03656H82.2815V5.88586H81.6118V6.36046H82.0831V7.35963H81.711V7.85921H81.6614V8.08402H81.9343V8.58361H82.356V9.20809H81.9095V9.58278H81.8103V9.95746H81.6862V10.4321H81.7606V10.9317H82.0087V11.4312H82.0583V12.2306H82.9265V12.855H81.2894V12.9799H83.9683V13.7043H85.0845V14.5786H83.7698V15.5528H81.9591V16.4021H81.7855V16.6519V17.1265H82.48V17.8759H79.9995C80.0243 17.9008 80.0243 17.9008 80.0491 17.9008L80.1235 17.9508H91.5585V17.726C91.5585 17.6261 91.5833 17.5511 91.6081 17.5012L91.6825 17.3513H95.18V17.1265Z" fill="white"/>
<path d="M107.657 18.1007C107.929 18.1257 108.202 18.1506 108.475 18.1756C109.046 18.2006 109.591 18.2006 110.187 18.1756C110.41 18.1506 110.633 18.1506 110.856 18.1257V18.1007C111.477 18.0257 112.072 17.9008 112.618 17.751H112.692H112.94L114.056 17.1515H114.007L114.329 16.9017H112.543L113.064 16.4521C113.163 16.3771 113.238 16.3022 113.337 16.2272C113.411 16.1523 113.511 16.0774 113.585 16.0024L113.659 15.9275H115.669L115.991 15.5528H116.958L117.058 15.4529H115.222L115.396 15.1032C115.445 15.0282 115.47 14.9533 115.52 14.8784C115.545 14.8534 115.569 14.8034 115.569 14.7784L115.619 14.5786H116.76V14.4537C116.76 14.4038 116.76 14.3538 116.785 14.3038V14.079H116.958L117.008 13.8542H116.909L116.983 13.5545C116.983 13.5295 116.983 13.5295 117.008 13.5045V12.88H117.058V12.5303H116.983V12.2805H116.834L116.785 11.8309C116.76 11.756 116.76 11.656 116.735 11.5561H116.313L116.239 11.3063H115.892L115.817 11.0565H113.734L113.684 10.8567C113.684 10.8068 113.659 10.7818 113.635 10.7318C113.61 10.6819 113.56 10.6069 113.535 10.532L113.436 10.3072H113.114L113.039 10.1823C113.014 10.1573 113.014 10.1323 112.99 10.0824C112.965 10.0574 112.94 10.0324 112.915 10.0074L112.494 9.58278H113.808C113.783 9.5578 113.783 9.55779 113.759 9.53282L113.56 9.35796H111.551L111.501 9.25805L110.509 8.75846H111.973C111.824 8.68352 111.625 8.60859 111.427 8.50867L110.236 8.03406H112.196L111.253 7.78427H111.229C110.98 7.73431 110.708 7.70934 110.46 7.68436H110.41C110.261 7.65938 110.112 7.6344 109.963 7.60942C109.815 7.58444 109.691 7.58444 109.567 7.55946H108.773C108.55 7.53448 108.351 7.48452 108.153 7.45954C107.979 7.40959 107.83 7.38461 107.681 7.33465H106.987L106.937 7.30967C106.664 7.20975 106.466 7.13481 106.342 7.00992L105.821 6.56029H108.798L108.748 6.33548H107.954L108.202 5.93581C108.376 5.68602 108.674 5.51117 109.071 5.46121H109.095H110.013C110.162 5.48619 110.286 5.51117 110.41 5.53615L110.732 5.46121C110.807 5.43623 110.906 5.43623 110.98 5.43623H111.353C111.427 5.43623 111.501 5.43623 111.576 5.46121L113.039 5.93581H111.105L111.477 6.23556H115.817C115.917 6.23556 116.016 6.21058 116.065 5.98577L116.115 5.78594H116.859L116.785 5.66104C116.76 5.63606 116.76 5.58611 116.735 5.56113H116.413V5.31133H116.041L115.892 4.91167C115.867 4.83673 115.842 4.76179 115.793 4.71183L115.569 4.33715H115.793L115.644 4.08735H115.693L115.52 3.86254H115.321L115.272 3.73765C115.222 3.68769 115.197 3.63773 115.148 3.58777L114.924 3.36296H114.751L113.833 2.48869H114.081C114.081 2.48869 114.056 2.48869 114.056 2.46371L113.114 1.9891H113.188L113.138 1.96412C113.114 1.93914 113.089 1.93914 113.039 1.91417L112.94 1.88919H112.717L112.667 1.86421C112.196 1.66437 111.7 1.48952 111.204 1.3896L110.236 1.18977C109.467 1.11483 108.624 1.11483 107.905 1.21475C107.508 1.26471 107.111 1.31467 106.764 1.41458H106.714H106.59L106.144 1.56446L105.623 1.83923L104.804 2.31383C104.705 2.36379 104.63 2.43873 104.531 2.48869L104.457 2.53865H104.01C103.936 2.5886 103.862 2.63856 103.787 2.7135C103.713 2.78844 103.638 2.83839 103.589 2.88835H103.837L103.365 3.36296V3.48785H102.944L102.82 3.71267H103.043L102.522 4.58694H102.274L102.175 4.81175H102.373L102.299 5.06154H102.472V5.31133H104.134V5.56113C104.134 5.61108 104.134 5.63606 104.11 5.68602V5.93581H103.44L103.39 6.11067C103.39 6.16063 103.365 6.21058 103.365 6.26054V6.76013L103.043 6.78511L103.167 7.00992H102.77H101.778V7.10984H101.803L101.828 7.35963H101.927L102.001 7.60942H102.15V7.83423V7.85921H102.671L102.869 8.35879H103.688L103.762 8.50867C103.787 8.55863 103.812 8.63357 103.862 8.68352C103.886 8.75846 103.936 8.80842 103.961 8.88336L104.134 9.25805H100.984L101.207 9.63273H100.935C100.959 9.65771 100.984 9.68269 101.009 9.70767L101.158 9.85755H104.705L104.779 9.9075C104.854 9.98244 104.928 10.0324 105.003 10.0824C105.077 10.1323 105.151 10.2073 105.226 10.2572L105.771 10.7068H103.613C103.638 10.7068 103.638 10.7318 103.663 10.7318C103.713 10.7568 103.787 10.7818 103.837 10.8068H104.184L104.234 10.8317C104.407 10.9067 104.606 10.9816 104.804 11.0565H105.226L105.275 11.0815C105.871 11.2814 106.516 11.4562 107.136 11.5561L107.458 11.6061C107.557 11.6311 107.681 11.6311 107.781 11.656L108.748 11.8059H108.897C109.17 11.8309 109.393 11.8809 109.591 11.9308C109.79 11.9808 109.939 12.0058 110.088 12.0557H110.187C110.559 12.1556 110.807 12.2555 110.98 12.4054H111.179L111.253 12.4804C111.402 12.6302 111.501 12.8301 111.501 13.0549V13.1048L111.427 13.3796H112.37L110.435 13.8792C110.286 13.9042 110.137 13.9541 109.939 13.9541C109.765 13.9791 109.542 13.9791 109.343 13.9791C108.971 13.9791 108.698 13.9541 108.45 13.8792H107.979L108.128 13.8542C107.855 13.7793 107.607 13.6544 107.409 13.5295H107.384L107.285 13.4545L107.26 13.4296C107.235 13.4296 107.235 13.4046 107.21 13.4046L107.185 13.3796L106.813 13.0049H102.249C102.125 13.0049 102.026 13.0299 101.976 13.2297L101.927 13.4046H101.629L101.679 13.5794C101.704 13.6294 101.704 13.7043 101.704 13.7543H101.852L101.902 13.9541C101.927 14.0041 101.927 14.079 101.952 14.129C101.952 14.1789 101.976 14.2039 101.976 14.2539H102.274L102.572 14.9783H104.358L104.432 15.1032H105.92L106.441 15.9774H106.218C106.243 16.0024 106.268 16.0524 106.292 16.1023L106.466 16.477H102.745L102.795 16.502C102.869 16.552 102.919 16.6019 102.969 16.6519C102.993 16.6769 103.018 16.6769 103.018 16.7018H106.292L106.441 16.7768C106.516 16.8267 106.59 16.8767 106.615 16.9516L106.788 17.3263H105.821L106.02 17.4512H105.499C105.623 17.5012 105.747 17.5511 105.846 17.5761C106.044 17.6511 106.268 17.726 106.516 17.8009L107.657 18.1007Z" fill="white"/>
<path d="M75.4103 9.35798C74.9638 7.38462 74.5422 5.51119 73.7236 3.68771C72.2105 0.215599 68.6386 0.690203 66.6543 1.26472C64.5707 1.81427 62.6359 1.46456 60.9244 1.16481C57.7246 0.615266 55.4177 0.19062 53.607 5.31135C53.4582 5.8609 53.3093 6.43542 53.1357 7.00994C52.3667 9.75765 51.6226 12.3555 51.8955 15.1532C52.0195 16.2772 52.714 17.3014 53.7062 17.8259C54.5496 18.2756 55.4673 18.2756 56.2611 17.8509C57.0052 17.5262 57.6005 16.8517 58.1214 16.2522C58.5183 15.8026 58.8656 15.4279 59.2129 15.2031C60.1058 14.7035 60.9244 15.0782 61.7181 15.4529C62.3134 15.7277 62.9336 16.0274 63.6529 15.9775H63.6777H63.7025C64.2978 16.0274 64.8683 15.7027 65.4636 15.353C66.0342 15.0283 66.6295 14.7035 67.2496 14.7035C67.4976 14.7035 67.7209 14.7535 67.9937 14.8534L68.0433 14.8784C68.465 15.1532 68.9115 15.6527 69.3828 16.1773C70.3998 17.3014 71.5656 18.5753 72.9547 18.4754H73.0787C73.9965 18.4504 74.7406 18.0507 75.2615 17.3263C76.3777 15.8026 76.3777 12.955 75.832 10.9566C75.6584 10.4071 75.5343 9.88254 75.4103 9.35798ZM71.9129 12.3555C71.7144 12.7551 71.4416 12.955 71.1191 12.98C70.4742 13.0299 69.8789 12.2306 69.6556 11.9059C68.8867 10.7568 68.2914 10.7318 67.0511 10.6819H66.9767C66.3814 10.6569 65.8605 11.0066 65.3148 11.4063C64.6451 11.8809 63.9506 12.4054 63.0824 12.0308C62.8095 11.8809 62.5367 11.706 62.2886 11.5312C61.7677 11.1815 61.2716 10.8318 60.7011 10.8318C59.4361 10.7318 58.8904 11.3813 58.2951 12.0807C58.1462 12.2556 57.9974 12.4304 57.8486 12.6053L57.8238 12.6303C57.4269 13.0049 57.0548 13.1798 56.7572 13.1798C56.7076 13.1798 56.658 13.1798 56.6084 13.1548C56.4595 13.1298 56.2611 13.0299 56.1371 12.7302C55.8394 12.0308 56.1123 11.2314 56.3603 10.4571C56.4843 10.0824 56.6332 9.68271 56.6828 9.30802L56.7076 9.23308C57.1293 7.4096 57.675 5.11152 58.8408 4.56198C59.8578 4.13733 60.9244 4.38712 61.9166 4.63691C62.6359 4.81177 63.38 4.98662 64.0746 4.91169H64.0994H64.1242C64.7939 4.93667 65.4884 4.78679 66.183 4.63691C67.324 4.38712 68.5146 4.11235 69.4076 4.81177C70.3998 5.53617 71.1439 7.50952 71.516 9.08321C71.5904 9.53283 71.6896 9.9325 71.7888 10.2822C71.9873 11.2064 72.1609 11.8809 71.9129 12.3555Z" fill="white"/>
<path d="M74.8895 32.3388H2.28613V10.8567C2.28613 10.3821 1.88926 9.98242 1.41797 9.98242C0.94668 9.98242 0.549805 10.3821 0.549805 10.8567V34.1123H74.8895C75.3608 34.1123 75.7577 33.7126 75.7577 33.238C75.7577 32.7634 75.3608 32.3388 74.8895 32.3388Z" fill="white"/>
<path d="M87.6392 35.1365C87.664 35.0615 87.6888 35.0116 87.7384 34.9366L87.8128 34.8117H88.5321C88.5321 34.7618 88.5569 34.7368 88.5569 34.6868L88.5817 34.537H86.0765L85.9028 34.7118C85.8532 34.7368 85.8284 34.7868 85.8036 34.8117C85.754 34.8867 85.6796 34.9366 85.6052 34.9616L85.6548 34.9866H84.8362C84.7618 35.0366 84.6626 35.0615 84.5634 35.0615C84.3898 35.0615 84.2657 35.0366 84.1417 34.9616L83.3479 34.487H84.1417C84.1169 34.4121 84.0921 34.3371 84.0921 34.2622V34.0124H84.1665V33.8625H84.3649V33.5128H89.1771V33.4878H88.7306V33.0132H88.5073V32.3638H88.7058L88.5569 32.0391H88.681L88.6065 31.5644H88.8794L88.7306 31.1648H88.929L88.8298 30.9649H88.7802L88.7306 30.89H88.3585L88.3089 30.8151H87.9864L87.5896 30.1656H88.3337C88.3089 30.1406 88.2841 30.1157 88.2593 30.0907L88.0608 29.8908H87.7384L87.664 29.8409C87.54 29.741 87.4159 29.6411 87.2671 29.5411L86.6222 29.0915H86.895L86.771 29.0416H86.4237C86.2253 28.9916 86.0021 28.9416 85.754 28.9167C85.5556 28.8917 85.3571 28.8667 85.1339 28.8667L84.4642 29.0416C84.1913 29.1165 83.8937 29.2164 83.6456 29.3413L83.596 29.3663H83.2487L82.8767 29.5911L82.4054 30.0657H82.0829L81.9093 30.2156C81.8845 30.2406 81.8597 30.2905 81.8349 30.3155C81.7853 30.3904 81.7605 30.4404 81.7108 30.4903L81.6364 30.5903H81.4628L81.314 30.7901H81.562L81.2644 31.5145H81.1651L81.0907 31.7393C81.0659 31.7893 81.0659 31.8142 81.0659 31.8142V31.8892H82.6038V32.114H82.8767V32.3638C82.8767 32.4137 82.8767 32.4637 82.8767 32.5137C82.8767 32.5386 82.8767 32.5636 82.8767 32.5886V32.8384H82.1325V33.1631H80.9419V33.2131H81.0907L81.1155 33.5378H81.7108L81.8597 34.3621H81.0411L81.0907 34.512H81.0411C81.0659 34.562 81.0659 34.5869 81.0907 34.6369L81.2147 34.9616H81.9837L82.4798 35.7859H82.1573L82.1821 35.8359L82.2069 35.8609C82.2565 35.9108 82.3061 35.9358 82.3558 35.9858L82.7774 36.4104H82.6286L83.0007 36.6102H83.0255L83.596 36.7601H84.1665C84.3153 36.7851 84.4642 36.7851 84.6378 36.8101C84.8858 36.8351 85.1587 36.8351 85.3819 36.8101V36.7601C85.5308 36.7351 85.6548 36.7102 85.7788 36.6852C85.9028 36.6602 86.0021 36.6352 86.1261 36.6102H86.2005H86.4237C86.5478 36.5853 86.6966 36.5353 86.8206 36.4854C86.9446 36.4354 87.0687 36.3854 87.1927 36.3355L87.2423 36.3105H87.4407C87.5647 36.2356 87.6888 36.1856 87.8128 36.1107H87.5647L88.1353 35.5361H88.8794C88.9042 35.5112 88.9042 35.5112 88.929 35.4862H87.5647L87.6392 35.1365ZM83.7944 31.4645V31.2397L84.1913 31.2147V31.0898H84.2657L84.3401 30.9649C84.489 30.7152 84.7122 30.5903 85.0099 30.5903C85.3075 30.5903 85.5556 30.7152 85.7044 30.94C85.754 31.0149 85.8036 31.0898 85.8284 31.1898L85.8532 31.2397C85.8532 31.2647 85.878 31.2897 85.878 31.3147V31.3646C85.878 31.3896 85.878 31.3896 85.878 31.4146H86.1261V31.9891H86.0269V32.114H84.2905V31.9641H83.7944V31.8142H83.6208L83.7944 31.4645Z" fill="white"/>
<path d="M91.4096 32.164H91.732V32.5387C91.732 32.5637 91.732 32.5637 91.732 32.5887L91.8064 32.8884H91.0127V33.0883H91.3352V33.7377H91.1119V33.8127H90.8887V34.3622H90.8639V34.5121H90.8391V35.1865H90.8639V35.6611H90.9135V36.2856H90.9383V36.5354C90.9383 36.5604 90.9631 36.5604 90.9631 36.5853V36.6103H91.7568L91.8312 36.6603C91.8312 36.6603 91.8561 36.6603 91.9057 36.6603H93.6172L93.7164 36.6103C93.7412 36.6103 93.7412 36.6103 93.7412 36.5853L93.8156 36.4355H94.0389V36.4604L94.0637 36.4355V36.1857H93.9396V35.7111H93.4187V34.8868H93.8652V34.2623H93.9148V34.2123H93.9396V33.6128H93.6172V33.0383H93.6668V32.7136H93.89V32.5887H93.8404V32.0142H93.9396L94.0885 31.5395H94.1877C94.2373 31.4646 94.2869 31.4147 94.3365 31.3647C94.3613 31.3397 94.3861 31.3397 94.4109 31.3147H94.4357C94.5846 31.2398 94.7086 31.2148 94.8822 31.2148C95.1055 31.2148 95.2791 31.2648 95.4031 31.3897L95.8992 31.8393H95.7504C95.7504 31.8893 95.7752 31.9392 95.7752 31.9892V32.0641H95.8V32.6386H95.7256V32.7635H96.0729V33.1632H96.6434V33.8127H95.676V33.8626H95.7752V34.4371H95.7008V34.587H95.676V34.637H95.7504V35.2614H95.9488V36.0858H95.7008V36.2356H95.676V36.5104H95.9736L96.0481 36.6603C96.0481 36.6853 96.0481 36.6853 96.0729 36.6853L96.1721 36.7352H98.0324C98.082 36.7352 98.082 36.7352 98.1068 36.7352L98.1813 36.6853H98.6774V36.0608H98.7766V35.7111H98.1813V34.8868H98.7766L98.7518 34.5121V34.2873H98.727V33.8127H98.5533V33.2381H99.0246V33.2132H98.7518V32.8135H98.6774V32.0891H98.7766V32.0641V32.0391H98.6525L98.8262 31.6894C98.9006 31.5645 98.975 31.4396 99.0494 31.3647L99.1238 31.3147H99.2231C99.4959 31.1649 99.868 31.1649 100.116 31.3147H100.141L100.215 31.3647C100.339 31.4646 100.414 31.5645 100.488 31.6894L100.637 32.0142H100.761V32.5887H100.538V32.7136H100.811V33.5379H100.736V33.7627H100.612V34.0874H100.538V34.9117H100.563V35.7361H100.538V36.4854H100.736L100.811 36.6103C100.835 36.6603 100.86 36.6853 100.86 36.6853L100.91 36.7102C100.91 36.7102 100.91 36.7102 100.935 36.7102H103.341V36.0108H103.415V35.5362H103.489V35.2115H103.589V34.587H103.613V34.5371H103.564V34.3122H103.539V33.8376H103.291V33.2631H103.638V33.2132H103.613V32.5137H103.514V31.6894H103.638V31.6395H103.539V31.3147H103.465L103.316 30.5903H103.39C103.39 30.5654 103.365 30.5404 103.365 30.5154C103.365 30.4904 103.341 30.4654 103.341 30.4654H103.266L103.192 30.3405C103.167 30.3156 103.167 30.2656 103.142 30.2157L102.845 29.9159H101.505L101.431 29.841C101.381 29.791 101.331 29.741 101.331 29.6911L101.282 29.5912H101.232L101.183 29.4663L100.587 29.1665L100.24 29.5162C100.19 29.5662 100.141 29.6162 100.116 29.6411C100.066 29.6661 100.042 29.7161 99.992 29.741L99.9176 29.816H99.0742L99.0494 29.8659C99.0246 29.9159 98.9998 29.9409 98.975 29.9659C98.9502 29.9908 98.9502 30.0158 98.9254 30.0408L98.6774 30.4155L98.4789 29.9659H98.1565L98.2557 29.8659L98.0324 29.4913H97.958L97.8836 29.4163C97.7844 29.3164 97.6604 29.2165 97.5363 29.1415L97.0402 28.8418C96.9906 28.8418 96.941 28.8418 96.9162 28.8418C96.7426 28.8418 96.5689 28.8668 96.3953 28.9167C96.2465 28.9667 96.0977 29.0166 95.9488 29.0666L95.3783 29.5662H94.9815C94.9318 29.6161 94.8822 29.6661 94.8574 29.6911L94.783 29.791H94.1877L93.7164 30.4405V29.8909H93.6172V29.8659V29.816H92.9723V29.5912H91.8312V29.0167H91.2607L91.1863 29.0666L91.1119 29.1665H90.9631H90.2686V29.2914H90.715V29.3664H90.8143V29.4413H90.9879V30.2656H90.9135V30.4904H90.8887V30.5654V30.7902H90.9135V31.1149H90.9383V31.6644H90.9879V31.8893H91.484V32.164H91.4096Z" fill="white"/>
<path d="M116.859 33.6876H116.363L116.76 33.288H116.586V33.1381H116.016L116.239 32.9882H116.214V32.7634H115.346V32.2888H114.825V31.9641L114.651 31.6144H116.685L116.661 31.4895H116.487L116.437 31.2896C116.437 31.2397 116.413 31.1897 116.413 31.1148C116.413 31.0648 116.388 31.0399 116.388 31.0399L116.214 30.6901H116.537L116.512 30.6402H115.991L115.917 30.4903C115.892 30.4653 115.892 30.4154 115.867 30.3654L115.445 29.9408L116.041 29.9658H117.008L116.983 29.9158H116.388L115.817 29.2913H115.718L115.668 29.2663C115.445 29.1414 115.197 29.0415 114.949 28.9916H114.651C114.478 28.9666 114.304 28.9416 114.131 28.9166L113.783 29.1165H114.304L113.883 29.5411C113.858 29.5661 113.858 29.5661 113.833 29.5911L113.783 29.716H111.725V29.3163H111.675L111.6 29.1664C111.551 29.0915 111.526 29.0665 111.452 29.0665H110.732V29.641H109.864V30.1906H109.467V30.5153H109.12V30.915H108.227V31.0399H108.326V31.1897H108.45V31.5145H108.525V31.9141H109.17V32.5636H108.698V32.7634H109.418V33.3379H108.723V33.6627H108.326V33.8625H108.55V34.512H108.475V35.2863H108.277V35.9608H108.475V36.5353H108.376V36.5852H108.401V37.4095H108.202V37.4595H108.649V38.109H108.624V38.8833H108.103V38.9333H108.277V39.5578C108.301 39.6327 108.326 39.6577 108.351 39.6827L108.401 39.7076H111.055C111.104 39.7076 111.104 39.7076 111.129 39.7076L111.204 39.6577H111.476V39.4578H111.377V39.1331H111.228V38.5836H110.658V38.4587H110.286V37.6344H111.228V36.86H111.551V36.6602L111.328 36.5353H111.551V36.3354L111.501 36.2855H111.625V35.5111L112.072 36.0607C112.146 36.1606 112.245 36.2605 112.345 36.3354L112.469 36.4354C112.518 36.4603 112.568 36.4853 112.617 36.5103L113.064 36.7101C113.262 36.7601 113.51 36.7851 113.734 36.7851C114.255 36.7851 114.701 36.6852 115.098 36.5103L115.148 36.4853H115.272C115.396 36.4354 115.495 36.3604 115.569 36.3105L115.668 36.2105H115.495L115.917 35.7859C115.966 35.7359 115.991 35.711 116.016 35.686C116.041 35.636 116.09 35.5611 116.14 35.5111L116.214 35.4112H116.413C116.413 35.3862 116.437 35.3862 116.437 35.3613H116.115L116.512 34.9616C116.512 34.9116 116.537 34.8867 116.561 34.8367L116.636 34.6868H116.661L116.685 34.6369H116.214L116.363 33.9125H116.388V33.6876H116.859ZM112.89 32.4387C112.89 32.4637 112.89 32.4637 112.89 32.4887H113.61V32.8134H114.329L114.279 33.1131C114.279 33.1381 114.279 33.1881 114.279 33.213V33.6127H113.758L113.734 33.7376C113.734 33.7626 113.709 33.7876 113.709 33.8125V33.8375C113.684 33.9374 113.634 34.0374 113.61 34.1123L113.535 34.2622H113.362C113.312 34.3121 113.287 34.3621 113.238 34.3871L113.461 34.487H112.493C112.345 34.5369 112.196 34.5619 112.047 34.5619C111.873 34.5619 111.7 34.5369 111.551 34.462L110.41 33.9874H111.427L111.402 33.9374H111.278L111.228 33.7626C111.204 33.7126 111.204 33.6377 111.204 33.5628C111.204 33.5128 111.179 33.4379 111.179 33.3879V33.1381H111.873V33.0132H111.179V32.7884H110.36V32.3887H110.087V32.1389C110.087 32.089 110.087 32.064 110.112 32.014V31.7892H111.725L111.849 31.5894C111.948 31.4145 112.196 31.2147 112.667 31.2147C113.114 31.2147 113.362 31.4145 113.461 31.5894L113.585 31.7892H114.403L114.627 32.3638H112.841L112.89 32.4387Z" fill="white"/>
<path d="M118.447 33.338L118.372 33.6378C118.372 33.6628 118.348 33.6878 118.348 33.7127H118.72L118.645 34.0125C118.645 34.0375 118.62 34.0874 118.62 34.1374L118.546 34.5121H118.1V34.7868H118.174L118.224 34.9867C118.224 35.0117 118.224 35.0117 118.224 35.0366H118.273L118.397 35.3614H118.521L118.571 35.4363H118.695L118.769 35.5862C118.794 35.6112 118.794 35.6361 118.819 35.6611C118.844 35.7111 118.893 35.761 118.918 35.811L119.017 35.9858H119.365L119.613 36.2107C119.662 36.2606 119.737 36.3106 119.811 36.3605L120.208 36.6353L120.754 36.8351C120.878 36.8351 121.002 36.8351 121.126 36.8102C121.225 36.8102 121.324 36.7852 121.423 36.7602H121.473H121.572C121.647 36.7352 121.721 36.7102 121.795 36.7102C121.87 36.6853 121.944 36.6603 122.019 36.6353L122.068 36.6103H122.564C122.713 36.5354 122.862 36.4604 123.036 36.3356L123.11 36.2856H123.259C123.284 36.2606 123.333 36.2356 123.358 36.1857C123.408 36.1357 123.457 36.0858 123.507 36.0358L123.581 35.9609H124.549V36.6603H126.558C126.608 36.6603 126.608 36.6603 126.632 36.6603L126.707 36.6103H126.856C126.88 36.5853 126.88 36.5604 126.905 36.5104V36.4854H126.285V35.836H126.384V35.6861H126.608V35.5612H126.533V35.3364H125.938V34.5121H126.459V34.2373H126.434V33.8376H125.591V33.6878H125.194V33.1382H124.499V32.3139H125.367V32.239H125.789V32.164H125.963V31.9392H126.533V31.7893C126.533 31.7644 126.533 31.7394 126.533 31.7144H125.814V31.4896C125.814 31.4646 125.789 31.4147 125.789 31.3897V31.1399H126.335V31.0899H125.888L125.814 30.94C125.789 30.9151 125.789 30.8651 125.764 30.8152L125.367 30.4155H126.434L126.335 30.2157H125.442L125.367 30.1407C125.342 30.1157 125.293 30.0658 125.268 30.0158C125.268 29.9908 125.243 29.9908 125.243 29.9659L124.822 29.5412H125.144L124.375 28.9917H124.673C124.226 28.8918 123.73 28.8418 123.184 28.8418C122.788 28.8418 122.416 28.8668 122.068 28.9167C121.746 28.9667 121.448 29.0416 121.175 29.1415L121.126 29.1665H121.026C120.927 29.2165 120.828 29.2415 120.729 29.2914H121.597L121.175 29.7161C121.126 29.766 121.076 29.816 121.026 29.8659C120.977 29.8909 120.952 29.9159 120.927 29.9659L120.853 30.0408H119.761L119.588 30.2656C119.563 30.2906 119.563 30.3156 119.538 30.3405H120.654L120.481 30.7152V30.9151H119.191C119.191 30.94 119.166 30.99 119.166 31.015L119.141 31.0649H120.332L121.771 30.5903C121.82 30.5654 121.895 30.5654 121.994 30.5654C122.118 30.5654 122.192 30.5654 122.242 30.5903L122.44 30.6653H122.589L122.763 30.5903L122.862 30.6403C122.887 30.6403 122.887 30.6653 122.912 30.6653H123.209L123.284 30.7402C123.358 30.8152 123.408 30.8901 123.433 30.99L123.705 31.0899H123.433C123.433 31.1149 123.457 31.1649 123.457 31.2148H124.077V31.7893H123.284V31.8393L121.572 32.1141V32.189C121.399 32.214 121.25 32.2639 121.101 32.2889C120.952 32.3139 120.828 32.3639 120.679 32.4138L120.63 32.4388H119.662C119.464 32.4888 119.29 32.5637 119.141 32.6386L119.092 32.6636H118.893C118.868 32.6636 118.868 32.6886 118.844 32.6886L118.769 32.7635L118.67 32.7386L118.199 33.0883C118.149 33.1132 118.1 33.1632 118.075 33.1882V33.338H118.447ZM121.15 34.5121C121.126 34.4621 121.126 34.3872 121.126 34.3372V34.2373H120.977L121.126 34.0874V34.0624H121.15L121.349 33.8626H119.687L122.341 33.2631V33.4629L122.862 33.363H123.383V33.7377C123.383 33.7877 123.383 33.8626 123.358 33.9126L123.309 34.1124H123.259C123.234 34.1873 123.234 34.2373 123.209 34.2873C123.184 34.3372 123.16 34.3872 123.16 34.4371L123.11 34.562H123.184L122.936 34.637C122.887 34.7119 122.812 34.7868 122.738 34.8368L122.713 34.8618C122.564 34.9617 122.416 35.0117 122.217 35.0616H122.167H121.746H121.721C121.671 35.0866 121.622 35.0866 121.547 35.0866H121.448C121.349 35.0866 121.25 35.0866 121.2 35.0616L119.29 34.562H121.15V34.5121Z" fill="white"/>
<path d="M128.468 30.6652H128.542V31.3147H128.27V32.0141H128.245V32.1639H128.146V32.2139H128.17V32.9883H128.195V33.2131H128.294V33.5378H128.567V33.7626H128.716L128.766 33.9624C128.79 34.0374 128.79 34.0873 128.79 34.1373C128.79 34.1623 128.79 34.1623 128.79 34.1873L128.865 34.487H128.493L128.642 34.8117H128.146V34.8617H128.443L128.493 35.0366C128.518 35.1115 128.567 35.2114 128.617 35.3363L128.716 35.5361C128.741 35.5611 128.766 35.5861 128.79 35.6111C128.815 35.661 128.84 35.686 128.84 35.711L128.914 35.8359L129.063 35.9608C129.113 36.0107 129.162 36.0607 129.212 36.1107C129.262 36.1606 129.336 36.2106 129.386 36.2855L129.411 36.3105C129.435 36.3355 129.46 36.3605 129.485 36.3854L129.535 36.4354C129.584 36.4604 129.634 36.4853 129.708 36.5353H129.981L130.031 36.5603C130.229 36.6602 130.452 36.7351 130.676 36.7851L130.924 36.8351C131.097 36.8351 131.271 36.8351 131.445 36.8351C131.569 36.8351 131.693 36.8101 131.817 36.7851H131.866H132.015L132.511 36.5603C132.635 36.5103 132.759 36.4354 132.883 36.3605L132.958 36.3105H132.982C132.982 36.3105 133.007 36.2855 133.032 36.2855L133.106 36.2106L133.33 35.9858C133.354 35.9608 133.354 35.9608 133.354 35.9358V35.9108H133.379L133.404 35.8858L133.875 34.9366V35.9108H134.074L133.875 36.1356V36.2106H133.9V36.5353H134.123L134.198 36.6102C134.223 36.6602 134.272 36.6602 134.322 36.6602H136.852L136.926 36.5853C136.926 36.5853 136.926 36.5853 136.951 36.5603V35.9608H136.877V35.4112H136.604V34.5869H136.654V33.8126H136.926V33.263H136.951V33.0632H136.852V32.7385H136.778V32.5886H136.529V32.3638H136.157V31.7143H136.654V31.5644H136.852V31.1898H136.753V30.9649H136.678V30.2406H136.951V29.9658H136.902V29.8908H136.827V29.3913L136.778 29.2164C136.753 29.0915 136.703 29.0665 136.604 29.0665H133.652L133.578 29.2414V29.4412H133.851V29.5911H134.371V30.2406H133.975V30.3904H133.627V30.6652H133.776V31.3147H133.603V32.0141H133.354V32.064H133.479V32.2139H133.553V32.5386H133.603V33.5128H133.578V33.5628H134.074L133.95 33.8875C133.9 33.9874 133.851 34.0873 133.801 34.1873L133.727 34.2872H132.958C132.908 34.3371 132.834 34.3871 132.759 34.4121L132.66 34.462L132.561 34.4121C132.486 34.3871 132.437 34.3371 132.362 34.2872H132.139L132.065 34.1873C132.04 34.1373 132.015 34.1123 131.99 34.0624H131.717L131.668 33.8875C131.643 33.8376 131.643 33.7876 131.643 33.7376L131.569 33.6127C131.544 33.5878 131.544 33.5378 131.544 33.5128H131.494V32.8634H131.519V32.7385H131.445V32.5886H131.296V31.8642H131.469V31.7143H131.544V31.1648H131.593V30.9649H131.519V30.7401H131.469V29.9158H131.643V29.8659H131.544V29.716L131.519 29.3913L131.494 29.1914C131.494 29.1165 131.469 29.0665 131.345 29.0665H128.369C128.294 29.0665 128.245 29.0915 128.22 29.1165V29.1415C128.22 29.1664 128.22 29.1914 128.195 29.2414V29.3663H128.294V29.4412H128.642V29.5911H128.79V30.2406H128.518V30.3904H128.369L128.418 30.4903C128.443 30.5653 128.468 30.6152 128.468 30.6652Z" fill="white"/>
<path d="M145.558 34.6119H145.434V34.487L145.384 34.3871C145.36 34.3372 145.335 34.3122 145.31 34.3122H145.236L145.211 34.2872H145.186H143.797C143.474 34.2872 143.226 34.1873 143.078 33.9625L142.978 33.8126H142.929L142.904 33.7127L142.78 33.5378H142.879C142.879 33.4879 142.879 33.4629 142.854 33.4129C142.854 33.363 142.854 33.288 142.854 33.2381V32.4387H143.003V32.2889H143.028V32.0641H143.102V31.5145H143.127V31.2897H143.202L143.45 31.2647H145.409C145.434 31.2647 145.484 31.2647 145.508 31.2398H145.285V30.5154H145.31V30.3155H145.186V29.5911H145.459V29.4662H145.36V29.3663L145.31 29.2164C145.285 29.1415 145.236 29.0915 145.161 29.0666H143.028V28.7668H142.954V28.6169L142.929 28.3921H142.854V28.3172H142.482V28.1673H142.135V27.5928H142.259V26.8934H142.78V26.119H140.225C140.126 26.119 140.101 26.144 140.051 26.2189L139.977 26.3688H139.853V26.5686H139.878V26.6436H139.952V27.368H139.679V27.6927H139.53V27.8176H139.779V27.8925H139.853V28.2922H139.977V29.0166H139.903V29.0915H138.414C138.389 29.0915 138.365 29.0915 138.365 29.0915H138.29V29.2164H138.389V29.3663H138.489V30.0907H138.414V30.4154H138.216V30.7901H138.613V31.1398C138.613 31.1648 138.613 31.2148 138.638 31.2398L138.687 31.3147H140.051V31.8143H139.977V32.0641H139.952V32.6136H139.878V32.7385H139.903V33.5129H139.977V34.0874H139.878V34.1373H141.664V34.3871C141.664 34.4121 141.664 34.4371 141.664 34.4621C141.664 34.487 141.664 34.512 141.688 34.562L141.763 34.8617H140.523L140.622 35.1865H140.572L140.597 35.2364H141.118L141.192 35.3863C141.217 35.4113 141.217 35.4363 141.242 35.4612C141.267 35.4862 141.292 35.5362 141.316 35.5861L141.416 35.711H142.085L142.16 35.786C142.185 35.8109 142.234 35.8609 142.259 35.8859C142.309 35.9358 142.358 35.9858 142.408 36.0358L142.829 36.4604H141.639C141.664 36.4604 141.688 36.4854 141.738 36.4854C141.837 36.5353 141.961 36.5603 142.085 36.5853L142.383 36.6602H142.904C143.053 36.6852 143.202 36.6852 143.375 36.7102C143.549 36.7102 143.722 36.7352 143.871 36.7352H145.136L145.211 36.7102C145.211 36.7102 145.211 36.6852 145.236 36.6852L145.285 36.6353V35.9858H145.93V35.711H145.781V35.5611H145.285V34.9117H145.558C145.558 34.8617 145.558 34.8118 145.558 34.7618V34.6119Z" fill="white"/>
<path d="M147.716 34.3371C147.716 34.3871 147.741 34.4121 147.741 34.462V34.8617H146.675L146.724 35.0116C146.724 35.0366 146.724 35.0366 146.724 35.0615H146.774L146.848 35.2114H146.898V35.3363L146.923 35.3613H147.047L147.096 35.4362H147.22L147.295 35.5861C147.32 35.6111 147.32 35.6361 147.344 35.661C147.344 35.661 147.344 35.661 147.344 35.686H147.592V36.0107H147.865L148.113 36.2356C148.163 36.2855 148.237 36.3355 148.312 36.3854L148.709 36.6602L149.254 36.86C149.378 36.86 149.502 36.86 149.626 36.8351C149.726 36.8351 149.825 36.8101 149.924 36.7851H149.974H150.073C150.147 36.7601 150.222 36.7351 150.296 36.7351C150.371 36.7102 150.445 36.6852 150.519 36.6602L150.569 36.6352H151.065C151.214 36.5603 151.363 36.4854 151.536 36.3605L151.611 36.3105H151.76C151.784 36.2855 151.834 36.2605 151.859 36.2106C151.908 36.1606 151.958 36.1107 152.008 36.0607L152.082 35.9858H153.049V36.6852H155.059C155.108 36.6852 155.108 36.6852 155.133 36.6852L155.207 36.6352H155.356C155.381 36.6102 155.381 36.5853 155.406 36.5353V36.5103H154.711V35.8609H154.811V35.711H155.034V35.5861H154.959V35.3613H154.364V34.537H154.885V34.2622H154.86V33.8625H154.017V33.7127H153.67V33.1631H152.975V32.3388H153.843V32.2639H154.265V32.1889H154.438V31.9641H155.009V31.8142C155.009 31.7893 155.009 31.7643 155.009 31.7393H154.29V31.5145C154.29 31.4895 154.265 31.4396 154.265 31.4146V31.1648H154.811V31.1148H154.364L154.29 30.9649C154.265 30.94 154.265 30.89 154.24 30.8401L153.843 30.4404H154.91L154.811 30.2406H153.893L153.818 30.1656C153.794 30.1406 153.744 30.0907 153.719 30.0407C153.719 30.0157 153.694 30.0157 153.694 29.9908L153.273 29.5661H153.595L152.826 29.0166H153.124C152.677 28.9167 152.181 28.8667 151.636 28.8667C151.239 28.8667 150.867 28.8917 150.519 28.9416C150.197 28.9916 149.899 29.0665 149.626 29.1664L149.577 29.1914H149.502C149.403 29.2414 149.304 29.2664 149.205 29.3163H150.073L149.651 29.741C149.602 29.7909 149.552 29.8409 149.502 29.8908C149.453 29.9158 149.428 29.9408 149.403 29.9908L149.329 30.0657H148.237L148.064 30.2905C148.039 30.3155 148.039 30.3405 148.014 30.3655H149.13L148.957 30.7152V30.915H147.667C147.667 30.94 147.642 30.9899 147.642 31.0149L147.617 31.0649H148.808L150.246 30.5903C150.296 30.5653 150.371 30.5653 150.47 30.5653C150.594 30.5653 150.668 30.5653 150.718 30.5903L150.916 30.6652H151.065L151.239 30.5903L151.338 30.6402C151.363 30.6402 151.363 30.6652 151.387 30.6652H151.685L151.76 30.7401C151.834 30.8151 151.884 30.89 151.908 30.9899L152.181 31.0898H151.908C151.908 31.1148 151.933 31.1648 151.933 31.2147H152.553V31.7893H151.735V31.8392L150.023 32.114V32.1889C149.85 32.2139 149.701 32.2639 149.552 32.2888C149.403 32.3138 149.279 32.3638 149.13 32.4137L149.081 32.4387H148.113C147.915 32.4887 147.741 32.5636 147.592 32.6386L147.543 32.6635H147.344C147.32 32.6635 147.32 32.6885 147.295 32.6885L147.22 32.7634L147.121 32.7385L146.65 33.0882C146.551 33.1631 146.476 33.2381 146.377 33.338H146.873L146.799 33.6377C146.799 33.6627 146.774 33.6877 146.774 33.7127H147.146L147.071 34.0124C147.071 34.0374 147.071 34.0624 147.047 34.0873H147.667V34.3371H147.716ZM149.602 34.512C149.577 34.462 149.577 34.3871 149.577 34.3371V34.2372H149.428L149.577 34.0873V34.0624H149.602L149.8 33.8625H148.138L150.792 33.263V33.4629L151.313 33.363H151.834V33.7376C151.834 33.7876 151.834 33.8625 151.809 33.9125L151.76 34.1123H151.71C151.685 34.1873 151.685 34.2372 151.66 34.2872C151.636 34.3371 151.611 34.3871 151.611 34.4371L151.561 34.5619H151.636L151.387 34.6369C151.338 34.7118 151.263 34.7868 151.189 34.8367L151.164 34.8617C151.015 34.9616 150.867 35.0116 150.668 35.0615H150.619H150.197H150.172C150.122 35.0865 150.073 35.0865 149.998 35.0865H149.899C149.8 35.0865 149.701 35.0865 149.651 35.0615L147.741 34.5619H149.602V34.512Z" fill="white"/>
<path d="M123.184 10.5819C123.184 11.0565 123.581 11.4562 124.052 11.4562H160.391V31.2147C160.391 31.6893 160.788 32.089 161.259 32.089C161.731 32.089 162.127 31.6893 162.127 31.2147V9.70764H124.052C123.581 9.70764 123.184 10.1073 123.184 10.5819Z" fill="white"/>
</svg>
