<?xml version="1.0" encoding="UTF-8" standalone="no"?>
<!-- Generator: Adobe Illustrator 16.0.0, SVG Export Plug-In . SVG Version: 6.00 Build 0)  -->

<svg
   xmlns:dc="http://purl.org/dc/elements/1.1/"
   xmlns:cc="http://creativecommons.org/ns#"
   xmlns:rdf="http://www.w3.org/1999/02/22-rdf-syntax-ns#"
   xmlns:svg="http://www.w3.org/2000/svg"
   xmlns="http://www.w3.org/2000/svg"
   xmlns:sodipodi="http://sodipodi.sourceforge.net/DTD/sodipodi-0.dtd"
   xmlns:inkscape="http://www.inkscape.org/namespaces/inkscape"
   version="1.1"
   id="Layer_1"
   x="0px"
   y="0px"
   width="1268.002"
   height="456.646"
   viewBox="0 0 1268.002 456.646"
   enable-background="new 0 0 672 267"
   xml:space="preserve"
   inkscape:version="0.48.4 r9939"
   sodipodi:docname="Sims_4_logo.svg"><metadata
   id="metadata119"><rdf:RDF><cc:Work
       rdf:about=""><dc:format>image/svg+xml</dc:format><dc:type
         rdf:resource="http://purl.org/dc/dcmitype/StillImage" /></cc:Work></rdf:RDF></metadata><defs
   id="defs117" /><sodipodi:namedview
   pagecolor="#ffffff"
   bordercolor="#666666"
   borderopacity="1"
   objecttolerance="10"
   gridtolerance="10"
   guidetolerance="10"
   inkscape:pageopacity="0"
   inkscape:pageshadow="2"
   inkscape:window-width="1920"
   inkscape:window-height="1096"
   id="namedview115"
   showgrid="false"
   fit-margin-top="0"
   fit-margin-left="0"
   fit-margin-right="0"
   fit-margin-bottom="0"
   inkscape:zoom="0.66501709"
   inkscape:cx="711.24737"
   inkscape:cy="85.534487"
   inkscape:window-x="-8"
   inkscape:window-y="-8"
   inkscape:window-maximized="1"
   inkscape:current-layer="Layer_1" />
<linearGradient
   id="SVGID_1_"
   gradientUnits="userSpaceOnUse"
   x1="62.163101"
   y1="34.672901"
   x2="62.163101"
   y2="218.17039">
	<stop
   offset="0"
   style="stop-color:#239738"
   id="stop4" />
	<stop
   offset="1"
   style="stop-color:#19611F"
   id="stop6" />
</linearGradient>
<polygon
   points="16.699,121.006 49.366,218.17 107.627,132.168 75.199,34.673 "
   id="polygon8"
   style="fill:url(#SVGID_1_)"
   transform="matrix(2,0,0,2,-32.920001,-40.346)" />
<linearGradient
   id="SVGID_2_"
   gradientUnits="userSpaceOnUse"
   x1="78.376999"
   y1="129.16991"
   x2="78.376999"
   y2="154.59151">
	<stop
   offset="0"
   style="stop-color:#239738"
   id="stop11" />
	<stop
   offset="1"
   style="stop-color:#19611F"
   id="stop13" />
</linearGradient>
<polygon
   points="83.793,129.17 49.127,218.17 107.627,132.168 "
   id="polygon15"
   style="fill:url(#SVGID_2_)"
   transform="matrix(2,0,0,2,-32.920001,-40.346)" />
<linearGradient
   id="SVGID_3_"
   gradientUnits="userSpaceOnUse"
   x1="32.793499"
   y1="121.0059"
   x2="32.793499"
   y2="150.1129">
	<stop
   offset="0"
   style="stop-color:#239738"
   id="stop18" />
	<stop
   offset="1"
   style="stop-color:#19611F"
   id="stop20" />
</linearGradient>
<polygon
   points="16.46,121.006 49.127,218.17 40.627,123.855 "
   id="polygon22"
   style="fill:url(#SVGID_3_)"
   transform="matrix(2,0,0,2,-32.920001,-40.346)" />
<linearGradient
   id="SVGID_4_"
   gradientUnits="userSpaceOnUse"
   x1="62.2827"
   y1="123.8555"
   x2="62.2827"
   y2="163.99181">
	<stop
   offset="0"
   style="stop-color:#65AB31"
   id="stop25" />
	<stop
   offset="1"
   style="stop-color:#287531"
   id="stop27" />
</linearGradient>
<polygon
   points="49.127,218.17 83.938,129.188 40.627,123.855 "
   id="polygon29"
   style="fill:url(#SVGID_4_)"
   transform="matrix(2,0,0,2,-32.920001,-40.346)" />
<linearGradient
   id="SVGID_5_"
   gradientUnits="userSpaceOnUse"
   x1="-50.661598"
   y1="197.9971"
   x2="-50.661598"
   y2="155.4041"
   gradientTransform="matrix(-1,0,0,-1,-4.832,259.0039)">
	<stop
   offset="0"
   style="stop-color:#9FFF2A"
   id="stop32" />
	<stop
   offset="0.3359"
   style="stop-color:#7EE223"
   id="stop34" />
	<stop
   offset="1"
   style="stop-color:#40AC15"
   id="stop36" />
</linearGradient>
<polygon
   points="40.627,123.855 75.199,34.673 16.46,121.006 "
   id="polygon38"
   style="fill:url(#SVGID_5_)"
   transform="matrix(2,0,0,2,-32.920001,-40.346)" />
<linearGradient
   id="SVGID_6_"
   gradientUnits="userSpaceOnUse"
   x1="-96.245102"
   y1="191.666"
   x2="-96.245102"
   y2="148.41631"
   gradientTransform="matrix(-1,0,0,-1,-4.832,259.0039)">
	<stop
   offset="0"
   style="stop-color:#9FFF2A"
   id="stop41" />
	<stop
   offset="0.3359"
   style="stop-color:#7EE223"
   id="stop43" />
	<stop
   offset="1"
   style="stop-color:#40AC15"
   id="stop45" />
</linearGradient>
<polygon
   points="107.627,132.168 75.199,34.673 83.793,129.17 "
   id="polygon47"
   style="fill:url(#SVGID_6_)"
   transform="matrix(2,0,0,2,-32.920001,-40.346)" />
<linearGradient
   id="SVGID_7_"
   gradientUnits="userSpaceOnUse"
   x1="-67.042503"
   y1="208.66499"
   x2="-67.042503"
   y2="141.7372"
   gradientTransform="matrix(-1,0,0,-1,-4.832,259.0039)">
	<stop
   offset="0"
   style="stop-color:#9FFF2A"
   id="stop50" />
	<stop
   offset="1"
   style="stop-color:#A8E910"
   id="stop52" />
</linearGradient>
<polygon
   points="75.199,34.673 40.627,123.855 83.793,129.17 "
   id="polygon54"
   style="fill:url(#SVGID_7_)"
   transform="matrix(2,0,0,2,-32.920001,-40.346)" />
<g
   id="g56"
   transform="matrix(2,0,0,2,-32.920001,-40.346)">
	<linearGradient
   id="SVGID_8_"
   gradientUnits="userSpaceOnUse"
   x1="397.83499"
   y1="46.341801"
   x2="397.83499"
   y2="214.7466">
		<stop
   offset="0"
   style="stop-color:#12AEF5"
   id="stop59" />
		<stop
   offset="1"
   style="stop-color:#2253B6"
   id="stop61" />
	</linearGradient>
	<path
   d="m 505.877,129.842 c -5.666,-3.912 -16.832,-8.084 -23.666,-10.084 -6.832,-2 -15.166,-5.166 -19.5,-7.334 -4.332,-2.166 -4.5,-4.5 -4.5,-7.832 0,-3.334 2.334,-10.834 15.668,-10.834 13.334,0 25.25,11.332 25.25,11.332 l 21.332,-25.75 c 0,0 -8.334,-6.75 -12,-8.75 -3.666,-2 -10.832,-6.166 -22.166,-8.166 -11.334,-2 -22.816,-1.301 -32.811,1.318 -10.166,2.665 -20.439,9.85 -26.105,16.35 -5.666,6.5 -9.334,15 -9.334,27.667 0,12.667 4.834,20.997 10.082,28.164 5.25,7.167 21.918,13.333 30.252,16 8.334,2.667 12.832,4.323 17.832,6.656 5,2.333 6.5,6.417 6.498,8.922 0,3.167 -0.916,5.161 -3.166,7.245 -2.607,2.415 -6.949,4.583 -15.082,4.583 -17.418,0 -27.418,-12 -27.418,-12 L 422.824,185.623 399.377,63.092 h -34 l -15.25,60.75 -15.789,-77.5 h -33.711 l -28.5,167 h 40 l 8.25,-52.75 11.25,52.75 h 36.5 l 10.75,-53 8.25,53 h 41 l -1.705,-8.916 c 3.416,2.097 6.998,4.103 9.957,5.32 8.5,3.5 16.5,5 30.832,5 14.334,0 24.168,-3.332 30.334,-6.498 6.166,-3.166 25.998,-15.329 25.998,-39.829 0,-24.5 -11.998,-34.665 -17.666,-38.577 z"
   id="path63"
   inkscape:connector-curvature="0"
   style="fill:url(#SVGID_8_)" />
	<linearGradient
   id="SVGID_9_"
   gradientUnits="userSpaceOnUse"
   x1="158.2104"
   y1="30.445299"
   x2="158.2104"
   y2="216.74561">
		<stop
   offset="0"
   style="stop-color:#12AEF5"
   id="stop66" />
		<stop
   offset="1"
   style="stop-color:#2253B6"
   id="stop68" />
	</linearGradient>
	<path
   d="m 207.544,117.1 c -7.046,-4.764 -22.431,-11.266 -31,-13.424 -10.042,-2.529 -21.538,-7.241 -25.917,-10.75 -4.714,-3.777 -5.5,-8.441 -5.5,-12.498 0,-4.057 6.173,-15.994 22.75,-15.994 21,0 31.392,12.792 31.392,12.792 l 21.858,-27.54 c 0,0 -7.515,-5.969 -12.073,-8.402 -4.558,-2.435 -10.638,-6.968 -24.729,-9.402 -14.091,-2.434 -30.032,-1.859 -43.115,2.385 -12.413,4.027 -19.5,8.172 -27.963,18.584 -8.052,9.905 -11.604,18.256 -11.604,33.674 0,15.418 4.463,22.994 11.536,31.28 7.448,8.726 22.837,15.479 33.198,18.726 6.633,2.078 13.33,4.024 19.782,6.63 5.379,2.172 11.175,4.896 14.6,9.789 3.585,5.121 4.519,12.405 0.311,17.342 -3.477,4.079 -8.978,6.282 -14.046,7.585 -4.387,1.128 -8.956,1.569 -13.479,1.551 -20.917,-0.084 -41.833,-20.834 -41.833,-20.834 l -22.167,30.333 c 0,0 19.766,14.906 30.333,19.167 10.567,4.259 20.073,8.653 37.893,8.653 17.82,0 30.045,-4.056 37.711,-7.909 7.666,-3.854 31.396,-18.757 31.396,-48.577 -10e-4,-27.831 -12.29,-38.4 -19.334,-43.161 z"
   id="path70"
   inkscape:connector-curvature="0"
   style="fill:url(#SVGID_9_)" />
	<linearGradient
   id="SVGID_10_"
   gradientUnits="userSpaceOnUse"
   x1="248.002"
   y1="63.091801"
   x2="248.002"
   y2="213.3423">
		<stop
   offset="0"
   style="stop-color:#12AEF5"
   id="stop73" />
		<stop
   offset="1"
   style="stop-color:#2253B6"
   id="stop75" />
	</linearGradient>
	<path
   d="m 226.877,126.32 c 5.067,6.742 8.083,17.058 8.083,33.771 0,12.437 -2.715,22.437 -8.083,29.964 v 23.286 h 42.25 V 63.092 h -42.25 v 63.228 z"
   id="path77"
   inkscape:connector-curvature="0"
   style="fill:url(#SVGID_10_)" />
</g>
<g
   id="g79"
   transform="matrix(2,0,0,2,-32.920001,-40.346)">
	<linearGradient
   id="SVGID_11_"
   gradientUnits="userSpaceOnUse"
   x1="229.8745"
   y1="20.9307"
   x2="229.8745"
   y2="53.641602">
		<stop
   offset="0"
   style="stop-color:#12AEF5"
   id="stop82" />
		<stop
   offset="1"
   style="stop-color:#2253B6"
   id="stop84" />
	</linearGradient>
	<path
   d="m 242.295,28.636 h -8.962 v 24.288 l -7.253,0.718 V 28.636 h -8.626 l 2.145,-7.705 h 22.697 v 7.705 z"
   id="path86"
   inkscape:connector-curvature="0"
   style="fill:url(#SVGID_11_)" />
	<linearGradient
   id="SVGID_12_"
   gradientUnits="userSpaceOnUse"
   x1="255.0811"
   y1="20.172899"
   x2="255.0811"
   y2="53.641602">
		<stop
   offset="0"
   style="stop-color:#12AEF5"
   id="stop89" />
		<stop
   offset="1"
   style="stop-color:#2253B6"
   id="stop91" />
	</linearGradient>
	<path
   d="m 265.236,53.001 -6.434,0.477 V 39.251 c 0,-1.423 -0.21,-2.422 -0.63,-2.998 -0.453,-0.602 -1.077,-1.766 -2.989,-1.854 -1.433,-0.065 -2.888,1.32 -3.393,2.045 -0.485,0.692 -0.728,1.996 -0.728,3.91 v 12.479 l -6.137,0.808 v -32.71 l 5.511,-0.758 v 11.771 c 0.408,-0.604 1.16,-1.068 1.75,-1.474 0.707,-0.486 1.459,-0.905 2.25,-1.238 0.925,-0.39 1.954,-0.753 2.969,-0.753 1.733,0 3.231,0.401 4.493,1.203 1.339,0.854 2.261,2.08 2.766,3.678 0.382,1.236 0.573,2.297 0.573,3.184 v 16.457 z"
   id="path93"
   inkscape:connector-curvature="0"
   style="fill:url(#SVGID_12_)" />
	<linearGradient
   id="SVGID_13_"
   gradientUnits="userSpaceOnUse"
   x1="280.21579"
   y1="28.7139"
   x2="280.21579"
   y2="53.896">
		<stop
   offset="0"
   style="stop-color:#12AEF5"
   id="stop96" />
		<stop
   offset="1"
   style="stop-color:#2253B6"
   id="stop98" />
	</linearGradient>
	<path
   d="m 291.797,35.556 c -4.995,3.595 -9.99,7.19 -14.984,10.786 1.159,1.479 3.774,1.917 5.485,1.863 0.834,-0.028 4.203,-0.621 5.686,-2.592 1.32,1.534 2.64,3.068 3.959,4.603 -4.284,3.29 -10.037,4.77 -15.191,2.781 -5.78,-2.229 -9.272,-8.249 -8.002,-14.38 1.234,-5.957 6,-9.595 11.91,-9.889 4.95,-0.247 8.747,2.738 11.137,6.828 z m -7.569,-0.041 c -2.115,-1.408 -3.97,-2.092 -6.419,-0.687 -2.367,1.357 -3.21,4.062 -2.496,6.631 2.971,-1.981 5.943,-3.963 8.915,-5.944 z"
   id="path100"
   inkscape:connector-curvature="0"
   style="fill:url(#SVGID_13_)" />
</g>
<linearGradient
   id="SVGID_14_"
   gradientUnits="userSpaceOnUse"
   x1="578"
   y1="31.9951"
   x2="578"
   y2="248.49561"
   gradientTransform="matrix(2,0,0,2,-32.920001,-40.346)">
	<stop
   offset="0"
   style="stop-color:#61CB36"
   id="stop103" />
	<stop
   offset="1"
   style="stop-color:#02B447"
   id="stop105" />
</linearGradient>
<path
   d="m 1226.158,297.144 v -273.5 h -85.5 L 992.282,210.02 c 0,0 38.376,22.876 38.376,83.876 0,61 -52.5,92.25 -52.5,92.25 h 158 v 70.5 h 90 v -70 h 41.844 v -89.5 h -41.844 z m -91.332,-2 h -90.668 l 90.668,-126.668 v 126.668 z"
   id="path107"
   inkscape:connector-curvature="0"
   style="fill:url(#SVGID_14_)" />
<g
   id="g109"
   transform="matrix(2,0,0,2,-32.920001,-40.346)">
	<path
   d="m 517.36,61.795 h -2.837 v -0.953 h 6.805 v 0.953 h -2.836 v 7.556 h -1.132 v -7.556 z"
   id="path111"
   inkscape:connector-curvature="0"
   style="fill:#1693e2" />
	<path
   d="m 521.937,60.842 h 1.55 l 2.681,7.15 2.693,-7.15 h 1.55 v 8.509 h -1.073 v -7.079 h -0.023 l -2.657,7.079 h -0.966 l -2.657,-7.079 h -0.023 v 7.079 h -1.073 v -8.509 z"
   id="path113"
   inkscape:connector-curvature="0"
   style="fill:#1693e2" />
</g>
</svg>